<svg xmlns="http://www.w3.org/2000/svg" viewBox="0 0 191.33 201.33"><defs><style>.eacb8eb4-bdf8-44b6-b32f-4e74a001b5b4{fill:#04092b;}.b490621c-c276-446a-9b0d-7871825ea406{fill:#4881ff;}</style></defs><title>企业</title><g id="e7240e3a-a050-4001-bf79-9fedd7866aa0" data-name="图层 2"><g id="b2710a09-2cb1-4697-86e2-96098a66721d" data-name="图层 1"><circle class="eacb8eb4-bdf8-44b6-b32f-4e74a001b5b4" cx="95.67" cy="96.06" r="87.67"/><path class="b490621c-c276-446a-9b0d-7871825ea406" d="M95.67,201.33c-2.63,0-5.22-10.1-7.79-10.31a95.67,95.67,0,1,1,14.79.06C100.36,191.25,98,201.33,95.67,201.33ZM95.67,8a87.67,87.67,0,1,0,87.66,87.67A87.77,87.77,0,0,0,95.67,8Z"/><path class="b490621c-c276-446a-9b0d-7871825ea406" d="M144.11,135.07h-3.27V89.27a13.12,13.12,0,0,0-13.08-13.08H108.13v55.6a3.28,3.28,0,1,1-6.54.37V69.65A13.12,13.12,0,0,0,88.51,56.57H68.88A13.12,13.12,0,0,0,55.8,69.65v65.42H52.53a3.27,3.27,0,1,0-.36,6.53,2.16,2.16,0,0,0,.36,0h91.58a3.27,3.27,0,1,0,.36-6.53ZM85.23,122H72.16a3.28,3.28,0,0,1-.37-6.54H85.23A3.28,3.28,0,1,1,85.6,122Zm0-19.62H72.16a3.28,3.28,0,0,1-.37-6.54H85.23a3.28,3.28,0,1,1,.37,6.54Zm0-19.63H72.16a3.28,3.28,0,0,1-.37-6.54H85.23a3.28,3.28,0,1,1,.37,6.54ZM131,122H117.9a3.27,3.27,0,1,1-.36-6.54H131a3.28,3.28,0,0,1,0,6.54Zm0-19.62H117.9a3.27,3.27,0,1,1-.36-6.54H131a3.28,3.28,0,0,1,0,6.54Z"/></g></g></svg>