<?xml version="1.0" encoding="UTF-8"?>
<svg width="419px" height="381px" viewBox="0 0 419 381" version="1.1" xmlns="http://www.w3.org/2000/svg" xmlns:xlink="http://www.w3.org/1999/xlink">
    <title>百分比背景@1.5x</title>
    <defs>
        <radialGradient cx="50%" cy="-7.22565877%" fx="50%" fy="-7.22565877%" r="119.886114%" gradientTransform="translate(0.500000,-0.072257),scale(0.378248,1.000000),rotate(90.000000),scale(1.000000,1.997798),translate(-0.500000,0.072257)" id="radialGradient-1">
            <stop stop-color="#FFFFFF" stop-opacity="0" offset="0%"></stop>
            <stop stop-color="#5095FF" stop-opacity="0" offset="58.4662164%"></stop>
            <stop stop-color="#4CC8FF" offset="100%"></stop>
        </radialGradient>
    </defs>
    <g id="页面-1" stroke="none" stroke-width="1" fill="none" fill-rule="evenodd">
        <g id="运维监控平台-应用" transform="translate(-297.000000, -383.000000)">
            <g id="part1" transform="translate(70.000000, 309.000000)">
                <g id="编组-18" transform="translate(91.801061, 74.000000)">
                    <g id="百分比背景" transform="translate(155.000000, 0.000000)">
                        <g id="编组" transform="translate(-19.000000, 87.099444)">
                            <g id="编组-24" transform="translate(0.000000, 102.900556)">
                                <path d="M334.501682,132.901142 L418,0 L0,0 L80.1896622,126.883944 C89.5646944,138.125687 97.1988264,142.009249 103.092058,138.534631 C96.653862,142.71397 141.043223,158.107784 211.401305,158.107784 C258.306693,158.107784 299.340152,149.70557 334.501682,132.901142 Z" id="路径" fill="url(#radialGradient-1)"></path>
                                <path d="M340.117925,122.381496 C340.117925,143.709907 281.63512,161 209.492925,161 C137.350729,161 78.8679245,143.709907 78.8679245,122.381496 C78.8679245,116.162813 83.8396593,110.287436 92.6721021,105.083832 C86.2392991,109.256497 82.6817931,113.843967 82.6817931,118.65923 C82.6817931,137.931891 139.670511,153.555469 209.969658,153.555469 C280.268805,153.555469 337.257523,137.931891 337.257523,118.65923 C337.257523,115.750932 335.959796,112.92573 333.514434,110.224771 C337.799001,114.047517 340.117925,118.134444 340.117925,122.381496 Z" id="路径" fill="#39FFFD"></path>
                            </g>
                            <g id="编组-3" transform="translate(107.444078, 0.000000)">
                                <path d="M100.570073,208.167689 C158.283829,208.167689 205.070073,161.562645 205.070073,104.07241 C205.070073,81.8626631 198.087472,61.2774739 186.18976,44.3763253 C174.006357,27.0693414 156.668964,13.6254468 136.39761,6.25607438" id="椭圆形" stroke="#FFFFFF"></path>
                                <path d="M15.2932363,50.6914322 C2.75047899,70.599536 -1.84503574,93.1991487 0.656883293,114.839511 C4.02530874,143.974725 20.2587026,171.371179 47.2831912,188.119559 C94.3802875,217.307903 156.417377,203.102891 185.846909,156.391776" id="椭圆形" stroke="#39FFFD"></path>
                                <path d="M147.508181,11.219999 C139.046697,6.98663602 129.860642,3.82302967 120.094187,1.94018136 C98.1123445,-2.29763812 76.4060466,0.572659412 57.4081383,8.93116984 C37.9540467,17.4903873 21.3399757,31.8045512 10.1782672,50.1342401" id="椭圆形" stroke="#FFFFFF" stroke-dasharray="7"></path>
                                <path d="M102.541771,210.123228 C116.773688,209.509325 129.382849,206.993608 141.503914,201.922457" id="椭圆形" stroke="#FFFFFF" stroke-width="4" stroke-linecap="square" stroke-linejoin="round"></path>
                                <path d="M204.742446,121.920563 C207.177896,108.220642 206.79142,94.6745862 203.99718,81.8690744" id="椭圆形" stroke="#4CBBEE" stroke-width="4" stroke-linecap="square" stroke-linejoin="round"></path>
                            </g>
                        </g>
                        <rect id="矩形" x="0" y="0" width="381" height="381"></rect>
                    </g>
                </g>
            </g>
        </g>
    </g>
</svg>